<svg width="68" height="30" viewBox="0 0 68 30" fill="none" xmlns="http://www.w3.org/2000/svg">
<rect x="0.5" y="0.5" width="67" height="29" rx="1.5" stroke="#A5D6BF"/>
<path d="M14.0703 17.668C14.0703 18.1758 13.9453 18.6133 13.6953 18.9805C13.4492 19.3477 13.0938 19.6289 12.6289 19.8242C12.168 20.0195 11.6172 20.1172 10.9766 20.1172C10.6641 20.1172 10.3652 20.0996 10.0801 20.0645C9.79492 20.0293 9.52539 19.9785 9.27148 19.9121C9.02148 19.8418 8.79297 19.7578 8.58594 19.6602V18.3359C8.93359 18.4883 9.32227 18.627 9.75195 18.752C10.1816 18.873 10.6191 18.9336 11.0645 18.9336C11.4277 18.9336 11.7285 18.8867 11.9668 18.793C12.209 18.6953 12.3887 18.5586 12.5059 18.3828C12.623 18.2031 12.6816 17.9941 12.6816 17.7559C12.6816 17.502 12.6133 17.2871 12.4766 17.1113C12.3398 16.9355 12.1328 16.7754 11.8555 16.6309C11.582 16.4824 11.2383 16.3242 10.8242 16.1562C10.543 16.043 10.2734 15.9141 10.0156 15.7695C9.76172 15.625 9.53516 15.4551 9.33594 15.2598C9.13672 15.0645 8.97852 14.834 8.86133 14.5684C8.74805 14.2988 8.69141 13.9824 8.69141 13.6191C8.69141 13.1348 8.80664 12.7207 9.03711 12.377C9.27148 12.0332 9.59961 11.7695 10.0215 11.5859C10.4473 11.4023 10.9434 11.3105 11.5098 11.3105C11.959 11.3105 12.3809 11.3574 12.7754 11.4512C13.1738 11.5449 13.5645 11.6777 13.9473 11.8496L13.502 12.9805C13.1504 12.8359 12.8086 12.7207 12.4766 12.6348C12.1484 12.5488 11.8125 12.5059 11.4688 12.5059C11.1719 12.5059 10.9199 12.5508 10.7129 12.6406C10.5059 12.7305 10.3477 12.8574 10.2383 13.0215C10.1328 13.1816 10.0801 13.373 10.0801 13.5957C10.0801 13.8457 10.1406 14.0566 10.2617 14.2285C10.3867 14.3965 10.5781 14.5508 10.8359 14.6914C11.0977 14.832 11.4336 14.9883 11.8438 15.1602C12.3164 15.3555 12.7168 15.5605 13.0449 15.7754C13.377 15.9902 13.6309 16.248 13.8066 16.5488C13.9824 16.8457 14.0703 17.2188 14.0703 17.668ZM18.1953 20.1172C17.582 20.1172 17.0508 19.998 16.6016 19.7598C16.1523 19.5215 15.8066 19.1562 15.5645 18.6641C15.3223 18.1719 15.2012 17.5469 15.2012 16.7891C15.2012 16 15.334 15.3555 15.5996 14.8555C15.8652 14.3555 16.2324 13.9863 16.7012 13.748C17.1738 13.5098 17.7148 13.3906 18.3242 13.3906C18.7109 13.3906 19.0605 13.4297 19.373 13.5078C19.6895 13.582 19.957 13.6738 20.1758 13.7832L19.7656 14.8848C19.5273 14.7871 19.2832 14.7051 19.0332 14.6387C18.7832 14.5723 18.543 14.5391 18.3125 14.5391C17.9336 14.5391 17.6172 14.623 17.3633 14.791C17.1133 14.959 16.9258 15.209 16.8008 15.541C16.6797 15.873 16.6191 16.2852 16.6191 16.7773C16.6191 17.2539 16.6816 17.6562 16.8066 17.9844C16.9316 18.3086 17.1172 18.5547 17.3633 18.7227C17.6094 18.8867 17.9121 18.9688 18.2715 18.9688C18.627 18.9688 18.9453 18.9258 19.2266 18.8398C19.5078 18.7539 19.7734 18.6426 20.0234 18.5059V19.7012C19.7773 19.8418 19.5137 19.9453 19.2324 20.0117C18.9512 20.082 18.6055 20.1172 18.1953 20.1172ZM24.0898 13.3906C24.9102 13.3906 25.5293 13.5723 25.9473 13.9355C26.3691 14.2988 26.5801 14.8652 26.5801 15.6348V20H25.6016L25.3379 19.0801H25.291C25.1074 19.3145 24.918 19.5078 24.7227 19.6602C24.5273 19.8125 24.3008 19.9258 24.043 20C23.7891 20.0781 23.4785 20.1172 23.1113 20.1172C22.7246 20.1172 22.3789 20.0469 22.0742 19.9062C21.7695 19.7617 21.5293 19.543 21.3535 19.25C21.1777 18.957 21.0898 18.5859 21.0898 18.1367C21.0898 17.4688 21.3379 16.9668 21.834 16.6309C22.334 16.2949 23.0879 16.1094 24.0957 16.0742L25.2207 16.0332V15.6934C25.2207 15.2441 25.1152 14.9238 24.9043 14.7324C24.6973 14.541 24.4043 14.4453 24.0254 14.4453C23.7012 14.4453 23.3867 14.4922 23.082 14.5859C22.7773 14.6797 22.4805 14.7949 22.1914 14.9316L21.7461 13.959C22.0625 13.791 22.4219 13.6543 22.8242 13.5488C23.2305 13.4434 23.6523 13.3906 24.0898 13.3906ZM25.2148 16.9004L24.377 16.9297C23.6895 16.9531 23.207 17.0703 22.9297 17.2812C22.6523 17.4922 22.5137 17.7812 22.5137 18.1484C22.5137 18.4688 22.6094 18.7031 22.8008 18.8516C22.9922 18.9961 23.2441 19.0684 23.5566 19.0684C24.0332 19.0684 24.4277 18.9336 24.7402 18.6641C25.0566 18.3906 25.2148 17.9902 25.2148 17.4629V16.9004ZM31.8887 13.3906C32.6191 13.3906 33.1875 13.5801 33.5938 13.959C34.0039 14.334 34.209 14.9375 34.209 15.7695V20H32.832V16.0273C32.832 15.5234 32.7285 15.1465 32.5215 14.8965C32.3145 14.6426 31.9941 14.5156 31.5605 14.5156C30.9316 14.5156 30.4941 14.709 30.248 15.0957C30.0059 15.4824 29.8848 16.043 29.8848 16.7773V20H28.5078V13.5137H29.5801L29.7734 14.3926H29.8496C29.9902 14.166 30.1641 13.9805 30.3711 13.8359C30.582 13.6875 30.8164 13.5762 31.0742 13.502C31.3359 13.4277 31.6074 13.3906 31.8887 13.3906Z" fill="#A5D6BF"/>
<path d="M50.3333 12.3333V14.3333H48.3333V12.3333H50.3333ZM51.3333 11.3333H47.3333V15.3333H51.3333V11.3333ZM50.3333 17.6667V19.6667H48.3333V17.6667H50.3333ZM51.3333 16.6667H47.3333V20.6667H51.3333V16.6667ZM55.6666 12.3333V14.3333H53.6666V12.3333H55.6666ZM56.6666 11.3333H52.6666V15.3333H56.6666V11.3333ZM52.6666 16.6667H53.6666V17.6667H52.6666V16.6667ZM53.6666 17.6667H54.6666V18.6667H53.6666V17.6667ZM54.6666 16.6667H55.6666V17.6667H54.6666V16.6667ZM52.6666 18.6667H53.6666V19.6667H52.6666V18.6667ZM53.6666 19.6667H54.6666V20.6667H53.6666V19.6667ZM54.6666 18.6667H55.6666V19.6667H54.6666V18.6667ZM55.6666 17.6667H56.6666V18.6667H55.6666V17.6667ZM55.6666 19.6667H56.6666V20.6667H55.6666V19.6667ZM58.6666 12.6667H57.3333V10.6667H55.3333V9.33334H58.6666V12.6667ZM58.6666 22.6667V19.3333H57.3333V21.3333H55.3333V22.6667H58.6666ZM45.3333 22.6667H48.6666V21.3333H46.6666V19.3333H45.3333V22.6667ZM45.3333 9.33334V12.6667H46.6666V10.6667H48.6666V9.33334H45.3333Z" fill="#A5D6BF"/>
</svg>
